<svg xmlns="http://www.w3.org/2000/svg" version="1.1" xmlns:xlink="http://www.w3.org/1999/xlink" xmlns:svgjs="http://svgjs.dev/svgjs" width="100%" height="100%" viewBox="0 0 1000 600"><rect width="1000" height="600" x="0" y="0" fill="#e5e7eb"/><g><rect width="333.3333333333333" height="333.3333333333333" y="246.94262477819126" fill="#6415ff" transform="matrix(0.5562467396100732,0,0,0.5562467396100732,0,69.9311745029308)" x="224.7204132080078"/><path d="M391.1510830586521 487.00450802808683L385.707407582091 488.6092909720441Q378.47015116816584 468.21910768411584 371.23289475424065 447.8289243961876Q363.96417200808105 427.4387411082593 356.7269155941559 407.1429568170344Q349.4581928479963 386.878638858044 342.2209364340711 366.4884555701157L342.2209364340711 366.4884555701157L341.08814847363067 366.4884555701157Q341.08814847363067 366.4884555701157 340.5217544934104 373.41104866169627Q339.9553605131902 380.3021754210424 339.042836878391 391.283925370868Q338.1303132435917 402.297141652928 336.9975252831512 414.75780921777306Q335.86473732271077 427.2184767826181 334.983680020146 438.6407553837261Q334.07115638534674 450.09450031706854 333.5047624051265 457.89815071121393Q332.93836842490623 465.7332674375937 332.93836842490623 467.30658404931665L332.93836842490623 467.30658404931665Q332.93836842490623 474.3235761376006 339.9553605131902 474.3235761376006L339.9553605131902 474.3235761376006Q341.78040778278876 474.3235761376006 345.49343498645464 474.2291771408972Q349.2379285223551 474.1033118119594 349.2379285223551 474.1033118119594L349.2379285223551 474.1033118119594L349.7099235058719 475.0158354467587L347.66461191063223 485.2109270907228Q347.66461191063223 485.2109270907228 343.6998540490906 484.9906627650816Q339.735096187549 484.7389321072059 334.63755036556694 484.5186677815647Q329.54000454358487 484.2984034559235 325.66964567874663 484.2984034559235L325.66964567874663 484.2984034559235Q322.2712817974253 484.2984034559235 318.87291791610386 484.5186677815647Q315.4745540347825 484.7389321072059 312.54818513697796 485.2109270907228Q309.59034990693897 485.65145574200517 307.8911679662783 485.8717200676464Q306.1919860256176 486.123450725522 306.1919860256176 486.123450725522L306.1919860256176 486.123450725522L307.32477398605806 475.67662842368225Q314.5934967322177 474.7955711211174 317.7401299556634 471.051077585217Q320.9182295113436 467.30658404931665 321.83075314614285 458.2442803657929L321.83075314614285 458.2442803657929Q322.2712817974253 454.1536571753135 323.1838054322245 445.9094781298857Q324.09632906702376 437.63383275222344 325.2291170274642 427.0926114536803Q326.3619049879047 416.55139015513714 327.36882761940734 405.69550553424943Q328.4072165831444 394.8081545811272 329.41413921464704 385.0535915884455Q330.4525281783841 375.3304949279982 331.01892215860437 368.6281661620588Q331.5853161388246 361.9573037283539 331.5853161388246 360.383987116631L331.5853161388246 360.383987116631Q331.5853161388246 356.2933639261516 329.54000454358487 353.80752367962947Q327.4946929483451 351.32168343310735 323.1838054322245 349.84276581808786Q318.87291791610386 348.36384820306836 312.0761901534611 347.92331955178594L312.0761901534611 347.92331955178594L311.4153971765375 346.7905315913455L313.2089781139016 338.8610158682623Q313.2089781139016 338.8610158682623 317.86599528460124 339.0812801939035Q322.5230124553009 339.30154451954473 328.4072165831444 339.6476741741237Q334.2914207109879 339.99380382870277 337.91004891795046 339.99380382870277L337.91004891795046 339.99380382870277Q341.3084127992719 339.99380382870277 344.83264200953107 339.7420731708271Q348.3254048875558 339.5218088451859 350.8427114663124 339.30154451954473Q353.3285517128345 339.0812801939035 353.3285517128345 339.0812801939035L353.3285517128345 339.0812801939035Q361.0378031102765 363.7823509979524 367.92892986962266 384.39279861152187Q374.8515229612033 405.00324622509135 380.16933310882655 419.9497540364585Q385.4871432564498 434.89626184782566 388.53937748319214 443.1719072254879Q391.6230780421689 451.4475526031502 391.6230780421689 451.4475526031502L391.6230780421689 451.4475526031502L392.7558660026094 451.4475526031502Q392.7558660026094 451.4475526031502 395.8081002293518 443.1719072254879Q398.8603344560941 434.89626184782566 404.3040099326552 419.8553550397551Q409.7476854092163 404.78298189945014 416.76467749750026 384.39279861152187Q423.78166958578424 364.0026153235936 431.9314496345087 339.5218088451859L431.9314496345087 339.5218088451859Q431.9314496345087 339.30154451954473 434.7634195356098 339.5218088451859Q437.59538943671095 339.7420731708271 441.11961864697014 339.86793849976493Q444.6123815249949 339.99380382870277 446.87795744587584 339.99380382870277L446.87795744587584 339.99380382870277Q450.2763213271972 339.99380382870277 456.19199178727513 339.6476741741237Q462.07619591511866 339.30154451954473 466.70174675358385 338.9554148649657Q471.3587639242835 338.60928521038664 471.3587639242835 338.60928521038664L471.3587639242835 338.60928521038664L471.7992925755659 339.5218088451859L470.66650461512546 347.92331955178594Q460.9434079546782 349.05610751222645 456.85278476419876 351.8880774133276Q452.7936279059537 354.7200473144287 452.7936279059537 360.383987116631L452.7936279059537 360.383987116631Q452.7936279059537 362.39783237963627 453.1082912282983 369.4462908001547Q453.45442088287734 376.46328288843864 454.14668019203543 386.6583745324028Q454.80747316895906 396.8534661763669 455.6255978070549 408.5274754353506Q456.41225611291634 420.1700183620997 457.19891441877775 431.74962862437997Q457.98557272463916 443.29777255442576 458.67783203379724 452.80060488923186L458.67783203379724 452.80060488923186Q460.2511486455202 465.95353176323493 462.29646024075987 470.13855395041776Q464.34177183599957 474.3235761376006 469.7854473125606 474.3235761376006L469.7854473125606 474.3235761376006Q471.7992925755659 474.3235761376006 473.97046949974344 474.1033118119594Q476.1101800916866 473.88304748631816 476.1101800916866 473.88304748631816L476.1101800916866 473.88304748631816L476.5821750752034 474.7955711211174L474.5368634799637 484.9906627650816Q474.5368634799637 484.9906627650816 470.9182352730011 484.7389321072059Q467.2681407338041 484.5186677815647 462.17059491182204 484.42426878486134Q457.07304908983997 484.2984034559235 453.0138922315949 484.2984034559235L453.0138922315949 484.2984034559235Q449.3952640246324 484.2984034559235 445.30464083415296 484.5186677815647Q441.2140176436735 484.7389321072059 437.59538943671095 485.2109270907228Q433.9767612297484 485.65145574200517 431.71118530886747 485.8717200676464Q429.4456093879865 486.123450725522 429.4456093879865 486.123450725522L429.4456093879865 486.123450725522L430.35813302278575 475.67662842368225Q437.37512511106974 474.7955711211174 440.5532246667499 472.0580002167197Q443.7313242224301 469.35189564455635 443.7313242224301 464.3487488192776L443.7313242224301 464.3487488192776Q443.7313242224301 462.33490355627237 443.16493024220983 454.4997868298925Q442.5985362619896 446.6961364357472 441.6860126271904 435.58852115698375Q440.7734889923911 424.4809058782203 439.86096535759185 412.49223329689215Q438.9484417227926 400.47209438332953 438.06738442022777 390.0567384137242Q437.1548607854285 379.64138244411885 436.5884668052083 373.0649190071173Q436.0220728249881 366.4884555701157 436.0220728249881 366.4884555701157L436.0220728249881 366.4884555701157L434.8892848645476 366.4884555701157Q429.4456093879865 381.4349633814829 424.0019339114254 396.5073365217879Q418.55825843486434 411.5797096620929 413.02018396159986 426.7464817991013Q407.48210948833537 441.9447202683441 402.0384340117743 456.9856270764147Q396.5947585352132 472.0580002167197 391.1510830586521 487.00450802808683L391.1510830586521 487.00450802808683Z " fill="#e5e7eb" transform="matrix(0.5562467396100732,0,0,0.5562467396100732,0,69.9311745029308)"/><path d="M698.5581778173726 453.544346981211L694.8949929865569 454.62424539954395Q690.0248628646632 440.90318314307825 685.1547327427695 427.18212088661255Q680.263428142085 413.46105863014685 675.3932980201913 399.8035198100537Q670.5019934195068 386.16715546875133 665.6318632976131 372.44609321228563L665.6318632976131 372.44609321228563L664.8695820611428 372.44609321228563Q664.8695820611428 372.44609321228563 664.4884414429076 377.10447854627085Q664.1073008246724 381.7416894014653 663.493240939738 389.13158249946923Q662.8791810548037 396.54265007626395 662.1168998183333 404.92774367743743Q661.354618581863 413.31283727861097 660.7617331757194 420.9991730796866Q660.147673290785 428.7066833595532 659.7665326725498 433.957954099682Q659.3853920543147 439.2303993186017 659.3853920543147 440.28912325814383L659.3853920543147 440.28912325814383Q659.3853920543147 445.01103202850163 664.1073008246724 445.01103202850163L664.1073008246724 445.01103202850163Q665.3354205945413 445.01103202850163 667.8340090918607 444.9475085921291Q670.3537720679709 444.86281067696575 670.3537720679709 444.86281067696575L670.3537720679709 444.86281067696575L670.6713892498335 445.47687056190017L669.2950481284288 452.337401690133Q669.2950481284288 452.337401690133 666.6270638007827 452.1891803385971Q663.9590794731366 452.0197845082704 660.5288139090201 451.87156315673445Q657.0985483449037 451.7233418051986 654.4940874536301 451.7233418051986L654.4940874536301 451.7233418051986Q652.2072437442191 451.7233418051986 649.9204000348082 451.87156315673445Q647.6335563253972 452.0197845082704 645.664329797849 452.337401690133Q643.6739287915098 452.6338443932048 642.5305069368044 452.7820657447407Q641.3870850820988 452.9514615750674 641.3870850820988 452.9514615750674L641.3870850820988 452.9514615750674L642.1493663185692 445.9215346165078Q647.0406709192537 445.32864921036423 649.1581187983379 442.80888623425403Q651.296741156213 440.28912325814383 651.9108010411474 434.1908733663813L651.9108010411474 434.1908733663813Q652.2072437442191 431.4381911235718 652.8213036291536 425.8904776803712Q653.4353635140881 420.3215897583797 654.1976447505583 413.22813936344755Q654.9599259870287 406.1346889685155 655.6375093083357 398.8294937856749Q656.3362671084334 391.50312412404355 657.0138504297404 384.9390356988825Q657.7126082298381 378.3961217525122 658.0937488480733 373.8859577700629Q658.4748894663085 369.3969682664044 658.4748894663085 368.33824432686225L658.4748894663085 368.33824432686225Q658.4748894663085 365.58556208405275 657.0985483449037 363.9127782595762Q655.722207223499 362.23999443509973 652.8213036291536 361.24479393193013Q649.9204000348082 360.24959342876053 645.3467126159862 359.9531507256888L645.3467126159862 359.9531507256888L644.9020485613787 359.1908694892184L646.1089938524567 353.8549008339262Q646.1089938524567 353.8549008339262 649.2428167135013 354.00312218546213Q652.3766395745458 354.151343536998 656.3362671084334 354.38426280369725Q660.295894642321 354.6171820703965 662.7309597032677 354.6171820703965L662.7309597032677 354.6171820703965Q665.0178034126786 354.6171820703965 667.389345037253 354.4477862400698Q669.7397121830365 354.2995648885339 671.4336704863039 354.151343536998Q673.1064543107804 354.00312218546213 673.1064543107804 354.00312218546213L673.1064543107804 354.00312218546213Q678.2942016145366 370.6250880362732 682.9314124697312 384.4943716442748Q687.5897978037165 398.3636552522764 691.1682847193688 408.4215326779264Q694.7467716350211 418.4794101035764 696.8006960777327 424.04829802556793Q698.8757949992353 429.6171859475594 698.8757949992353 429.6171859475594L698.8757949992353 429.6171859475594L699.6380762357055 429.6171859475594Q699.6380762357055 429.6171859475594 701.6920006784172 424.04829802556793Q703.745925121129 418.4794101035764 707.4091099519446 408.3580092415539Q711.0722947827603 398.2154339007405 715.7942035531181 384.4943716442748Q720.5161123234759 370.7733093878091 726.0003023303041 354.2995648885339L726.0003023303041 354.2995648885339Q726.0003023303041 354.151343536998 727.9060054214799 354.2995648885339Q729.8117085126556 354.4477862400698 732.18325013723 354.53248415523313Q734.5336172830134 354.6171820703965 736.058179755954 354.6171820703965L736.058179755954 354.6171820703965Q738.345023465365 354.6171820703965 742.3258254780433 354.38426280369725Q746.2854530119308 354.151343536998 749.3981013941846 353.9184242702988Q752.5319242552292 353.6855050035995 752.5319242552292 353.6855050035995L752.5319242552292 353.6855050035995L752.828366958301 354.2995648885339L752.0660857218307 359.9531507256888Q745.5231717754605 360.7154319621591 742.770489532651 362.62113505333485Q740.0389817686324 364.52683814451063 740.0389817686324 368.33824432686225L740.0389817686324 368.33824432686225Q740.0389817686324 369.69341096947613 740.2507265565408 374.4364942186248Q740.4836458232401 379.1584029889826 740.9494843566385 386.01893411721545Q741.3941484112463 392.8794652454483 741.9446848598081 400.7351968768507Q742.4740468295793 408.56975402946233 743.0034087993503 416.36196222449223Q743.5327707691214 424.1329959407313 743.9986093025199 430.5276885355656L743.9986093025199 430.5276885355656Q745.057333242062 439.37862067013765 746.4336743634667 442.1948263493196Q747.8100154848714 445.01103202850163 751.4732003156871 445.01103202850163L751.4732003156871 445.01103202850163Q752.828366958301 445.01103202850163 754.2894059948692 444.86281067696575Q755.7292705526464 444.7145893254298 755.7292705526464 444.7145893254298L755.7292705526464 444.7145893254298L756.046887734509 445.32864921036423L754.6705466131043 452.1891803385971Q754.6705466131043 452.1891803385971 752.2354815521575 452.0197845082704Q749.7792420124198 451.87156315673445 746.3489764483033 451.80803972036193Q742.9187108841869 451.7233418051986 740.1872031201683 451.7233418051986L740.1872031201683 451.7233418051986Q737.7521380592215 451.7233418051986 734.9994558164119 451.87156315673445Q732.2467735736025 452.0197845082704 729.8117085126556 452.337401690133Q727.3766434517088 452.6338443932048 725.8520809787681 452.7820657447407Q724.3275185058275 452.9514615750674 724.3275185058275 452.9514615750674L724.3275185058275 452.9514615750674L724.941578390762 445.9215346165078Q729.6634871611197 445.32864921036423 731.8021095189947 443.486469555561Q733.9407318768699 441.66546437954855 733.9407318768699 438.2987222518047L733.9407318768699 438.2987222518047Q733.9407318768699 436.94355560919075 733.5595912586347 431.67111039027105Q733.1784506403994 426.41983965014225 732.5643907554651 418.94524863697495Q731.9503308705307 411.47065762380765 731.3362709855962 403.40318120449683Q730.7222111006618 395.3145303063951 730.1293256945182 388.30577782662635Q729.5152658095838 381.29702534685765 729.1341251913486 376.8715592795716Q728.7529845731135 372.44609321228563 728.7529845731135 372.44609321228563L728.7529845731135 372.44609321228563L727.9907033366433 372.44609321228563Q724.3275185058275 382.50397063793565 720.6643336750118 392.64654597874903Q717.0011488441961 402.7891213195624 713.2744405770079 412.9952200967483Q709.5477323098197 423.22249335272505 705.884547479004 433.3438942147476Q702.2213626481882 443.486469555561 698.5581778173726 453.544346981211L698.5581778173726 453.544346981211ZM797.9723557403764 453.544346981211L797.9723557403764 453.544346981211Q788.3591423693341 453.544346981211 781.2021685380295 449.28827674425173Q774.024020227934 445.01103202850163 769.9796947788832 437.4729175789618Q765.9565438086231 429.9136286506312 765.9565438086231 419.85575122498113L765.9565438086231 419.85575122498113Q765.9565438086231 412.08471750874213 768.6245281362693 405.07596502897337Q771.2925124639154 398.0672125492046 776.0144212342732 392.64654597874903Q780.736330004631 387.22587940829345 786.7498819812301 384.1132310260396Q792.7846084366201 380.979408164995 799.645139564853 380.979408164995L799.645139564853 380.979408164995Q822.3653553074266 380.979408164995 822.3653553074266 403.0855640226342L822.3653553074266 403.0855640226342Q822.3653553074266 405.07596502897337 822.047738125564 407.21458738684845Q821.7512954224921 409.33203526593263 821.4336782406295 410.5601550358015L821.4336782406295 410.5601550358015L819.4644517130812 412.3811602118139L777.3907623556779 412.3811602118139Q777.2213665253512 425.9540011167437 782.345590392735 433.80973274814613Q787.448639781328 441.66546437954855 796.7442359705076 442.95710758578997Q806.0398321596873 444.24875079203133 818.702170476611 438.4681180821314L818.702170476611 438.4681180821314L819.6126730646172 438.7645607852032L821.2854568890937 443.1900268524892Q818.2363319432123 445.32864921036423 814.0437851426257 447.76371427131113Q809.8512383420389 450.19877933225797 805.5951681050797 451.87156315673445Q801.3179233893295 453.544346981211 797.9723557403764 453.544346981211ZM777.9836477618215 406.7487488534499L777.9836477618215 406.7487488534499L805.5951681050797 405.37240773204513Q807.8820118144906 405.07596502897337 808.644293050961 404.313683792503Q809.4065742874312 403.5514025560327 809.4065742874312 401.26455884662175L809.4065742874312 401.26455884662175Q809.4065742874312 395.16630895485923 806.1245300748507 391.9689626574421Q802.8424858622701 388.75044188123405 796.7442359705076 388.75044188123405L796.7442359705076 388.75044188123405Q789.7354834907388 388.75044188123405 784.5477361869825 393.5570485667552Q779.3599888832263 398.3636552522764 777.9836477618215 406.7487488534499ZM836.9969201518985 452.337401690133L837.7592013883689 446.2391517983705Q842.3328888071907 445.77331326497193 843.8574512801314 443.25355028886173Q845.382013753072 440.75496179154237 845.382013753072 433.5768134814469L845.382013753072 433.5768134814469L845.382013753072 400.0364390767529Q845.382013753072 395.01808760332335 844.0056726316673 392.8794652454483Q842.6293315102625 390.74084288757325 839.5802065643812 390.74084288757325L839.5802065643812 390.74084288757325Q838.3732612733032 390.74084288757325 837.3780607701336 390.9737621542725Q836.3828602669641 391.20668142097173 836.3828602669641 391.20668142097173L836.3828602669641 391.20668142097173L835.6205790304938 390.1267830026388L836.0864175638923 385.404874232281Q840.8083263342501 384.4943716442748 845.5302351046079 383.41447322594183Q850.2521438749657 382.3557492863997 853.4494901723829 381.5934680499294Q856.6680109485909 380.8311868134591 856.6680109485909 380.8311868134591L856.6680109485909 380.8311868134591L857.726734888133 381.7416894014653Q857.726734888133 381.7416894014653 857.3455942698978 384.17675446241213Q856.9644536516627 386.63299400214987 856.6680109485909 390.21148091780213Q856.3503937667282 393.7899678334545 856.3503937667282 397.4531526642702L856.3503937667282 397.4531526642702L856.9644536516627 397.8978167188779Q861.6863624220205 390.74084288757325 867.784612313783 386.16715546875133Q873.8828622055456 381.5934680499294 878.4565496243674 381.5934680499294L878.4565496243674 381.5934680499294Q881.061010515641 381.5934680499294 882.1197344551831 381.88991075300123Q883.1784583947252 382.20752793486383 883.1784583947252 382.20752793486383L883.1784583947252 382.20752793486383L883.6442969281237 382.82158781979825Q883.6442969281237 382.82158781979825 883.347854225052 384.87551226251Q883.0302370431893 386.92943670522163 882.5855729885817 390.21148091780213Q882.1197344551831 393.4935251303827 881.738593836948 397.30493131273425Q881.3574532187127 401.1163374950859 881.209231867177 404.61012649557483L881.209231867177 404.61012649557483L875.2592033269503 405.07596502897337Q875.2592033269503 398.8294937856749 874.49692209048 396.7543948641724Q873.7346408540096 394.7004704214607 871.1513544415269 394.7004704214607L871.1513544415269 394.7004704214607Q867.784612313783 394.7004704214607 863.9732061314314 397.4531526642702Q860.1617999490799 400.1846604282888 856.9644536516627 405.07596502897337L856.9644536516627 405.07596502897337Q856.9644536516627 405.07596502897337 856.8162323001268 407.89217070815533Q856.6680109485909 410.70837638733735 856.4986151182642 414.98562110308745Q856.3503937667282 419.2416913400467 856.2021724151923 423.7518553224961Q856.0539510636564 428.2408448261546 855.9057297121205 431.67111039027105Q855.7363338817938 435.1013759543875 855.7363338817938 436.18127437272045L855.7363338817938 436.18127437272045Q855.7363338817938 441.34784719768595 857.2608963547344 443.1900268524892Q858.7854588276751 445.01103202850163 863.0627035434252 445.01103202850163L863.0627035434252 445.01103202850163Q864.7354873679018 445.01103202850163 867.255250344012 444.86281067696575Q869.7750133201222 444.7145893254298 869.7750133201222 444.7145893254298L869.7750133201222 444.7145893254298L869.9232346716581 445.32864921036423L868.5468935502533 452.0197845082704Q868.5468935502533 452.0197845082704 867.0223310773127 451.95626107189787Q865.497768604372 451.87156315673445 863.0627035434252 451.87156315673445Q860.6276384824783 451.87156315673445 857.9596541548323 451.80803972036193Q855.2916698271862 451.7233418051986 853.0048261177752 451.7233418051986L853.0048261177752 451.7233418051986Q848.5793600504892 451.7233418051986 844.9161752196735 451.87156315673445Q841.2529903888578 452.0197845082704 839.1355425097736 452.1891803385971Q836.9969201518985 452.337401690133 836.9969201518985 452.337401690133L836.9969201518985 452.337401690133ZM922.9864785215085 453.544346981211L922.9864785215085 453.544346981211Q913.3732651504662 453.544346981211 906.2162913191615 449.35180018062425Q899.038143009066 445.1592533800375 895.0785154751785 437.62113893049775Q891.1188879412911 430.08302448095793 891.1188879412911 419.85575122498113L891.1188879412911 419.85575122498113Q891.1188879412911 408.88737121132493 895.7560987964854 400.1211369919163Q900.4144841304707 391.3549027725076 908.418437113409 386.16715546875133Q916.4223900963474 380.979408164995 926.3320461704615 380.979408164995L926.3320461704615 380.979408164995Q931.2021762923551 380.979408164995 935.2465017414061 381.6781659650928Q939.290827190457 382.3557492863997 941.7258922514037 383.1180305228701Q944.1609573123507 383.8803117593404 944.1609573123507 383.8803117593404L944.1609573123507 383.8803117593404L944.6267958457491 384.9390356988825Q944.6267958457491 384.9390356988825 943.9492125244421 387.69171794169193Q943.2504547243444 390.44440018450143 942.488173487874 395.22983239123175Q941.7258922514037 400.0364390767529 941.429449548332 405.98646761697955L941.429449548332 405.98646761697955L935.1829783050335 406.4523061503781L935.1829783050335 401.70922290122945Q935.1829783050335 396.0768115428654 931.7527127409171 392.64654597874903Q928.3224471768007 389.2162804146326 922.6688613396458 389.2162804146326L922.6688613396458 389.2162804146326Q913.3732651504662 389.2162804146326 908.3337391982458 395.8438922761662Q903.3153877248161 402.47150413769975 903.3153877248161 414.66800392122485L903.3153877248161 414.66800392122485Q903.3153877248161 427.94440212308285 908.8842756468076 435.63073792415855Q914.4319890900082 443.3382482040251 924.0452024610506 443.3382482040251L924.0452024610506 443.3382482040251Q928.3224471768007 443.3382482040251 932.2820747106881 442.04660499778373Q936.2417022445757 440.75496179154237 938.7614652206859 439.52684202167353Q941.2812281967961 438.2987222518047 941.2812281967961 438.2987222518047L941.2812281967961 438.2987222518047L942.1917307848023 438.6163394336673L943.8645146092789 443.3382482040251Q943.8645146092789 443.3382482040251 941.7258922514037 444.86281067696575Q939.5872698935286 446.38737314990635 936.2417022445757 448.44129759261807Q932.8961345956226 450.49522203532973 929.2964732011794 452.0197845082704Q925.7179862855271 453.544346981211 922.9864785215085 453.544346981211ZM954.6846732713992 452.0197845082704L955.5951758594052 445.77331326497193Q960.0206419266914 445.32864921036423 961.7781236663312 443.486469555561Q963.5356054059712 441.66546437954855 963.5356054059712 437.38821966379845L963.5356054059712 437.38821966379845L963.5356054059712 356.2899658948731Q963.5356054059712 352.1609425306588 962.2439621997297 350.25523943948303Q960.9311445146976 348.34953634830725 957.8820195688163 348.34953634830725L957.8820195688163 348.34953634830725L954.6846732713992 348.34953634830725L954.0706133864647 347.90487229369955L954.6846732713992 343.01356769301503Q958.1996367506789 342.56890363840733 962.3921835512657 341.80662240193703Q966.5847303518524 341.04434116546673 970.5443578857399 340.197362013833Q974.5039854196274 339.3715573409902 977.2566676624368 338.6092761045199L977.2566676624368 338.6092761045199L978.1671702504431 340.5785026320682Q977.5531103655086 341.65840105040115 976.7908291290383 348.66715353016986Q976.028547892568 355.6759060099386 975.499185922797 367.1101245569934Q974.9698239530259 378.54434310404815 974.5039854196274 392.8794652454483L974.5039854196274 392.8794652454483Q975.5838838379603 392.117184008978 978.4000895171424 390.21148091780213Q981.2162951963243 388.30577782662635 984.7947821119767 386.16715546875133Q988.373269027629 384.02853311087625 991.8035345917455 382.50397063793565Q995.2338001558618 380.979408164995 997.372422513737 380.979408164995L997.372422513737 380.979408164995Q1007.2820785878511 380.979408164995 1012.7662685946791 386.082457553588Q1018.2716330802981 391.20668142097173 1018.2716330802981 400.65049896168733L1018.2716330802981 400.65049896168733Q1018.2716330802981 402.64089996802653 1017.890492462063 407.21458738684845Q1017.5093518438277 411.7882748056703 1017.0435133104291 417.4206861640343Q1016.5776747770307 423.05309752239833 1016.1965341587955 428.2408448261546Q1015.8153935405604 433.428592129911 1015.8153935405604 436.77415977886403L1015.8153935405604 436.77415977886403Q1015.8153935405604 441.19962584615 1017.0435133104291 443.25355028886173Q1018.2716330802981 445.32864921036423 1021.1513621958526 445.32864921036423L1021.1513621958526 445.32864921036423Q1022.0830392626495 445.32864921036423 1023.6711251719629 445.2439512952009Q1025.2803855600669 445.1592533800375 1026.4873308511449 445.01103202850163L1026.4873308511449 445.01103202850163L1026.8049480330073 445.62509191343605L1025.5768282631386 452.1891803385971Q1023.1417632021918 452.0197845082704 1019.097437753141 451.87156315673445Q1015.0531123040902 451.7233418051986 1012.0039873582087 451.7233418051986L1012.0039873582087 451.7233418051986Q1010.1829821821963 451.7233418051986 1007.5996957697135 451.95626107189787Q1004.9952348784401 452.1891803385971 1002.0943312840947 452.5703209568323Q999.2146021685402 452.9514615750674 996.3136985741947 453.544346981211L996.3136985741947 453.544346981211L996.9277584591292 447.29787573791253Q1001.5014458779511 446.0909304468346 1003.4706724054994 443.71938882226027Q1005.4610734118386 441.34784719768595 1005.4610734118386 437.38821966379845L1005.4610734118386 437.38821966379845L1006.3715759998448 407.21458738684845Q1006.3715759998448 399.5917750221452 1003.0895317872643 395.462751657931Q999.8074875746837 391.3549027725076 993.7092376829212 391.3549027725076L993.7092376829212 391.3549027725076Q989.8978315005696 391.3549027725076 984.3501180573691 393.7899678334545Q978.7812301353775 396.22503289440135 974.3557640680914 399.73999637368115L974.3557640680914 399.73999637368115Q974.2075427165556 405.37240773204513 974.1228448013923 411.47065762380765Q974.0593213650196 417.56890751557023 973.9746234498563 423.900076674032Q973.8899255346929 430.2312458324938 973.8899255346929 436.77415977886403L973.8899255346929 436.77415977886403Q973.8899255346929 441.5172430280127 975.2027432197252 443.42294611918845Q976.4943864259666 445.32864921036423 979.3952900203119 445.32864921036423L979.3952900203119 445.32864921036423Q980.3057926083181 445.32864921036423 981.8938785176314 445.2439512952009Q983.5031389057353 445.1592533800375 984.7312586756042 445.01103202850163L984.7312586756042 445.01103202850163L985.0277013786759 445.62509191343605L983.6513602572712 452.1891803385971Q981.0680738447884 452.0197845082704 976.9390504805742 451.87156315673445Q972.8312015951509 451.7233418051986 969.7820766492696 451.7233418051986L969.7820766492696 451.7233418051986Q966.5847303518524 451.7233418051986 962.2439621997297 451.80803972036193Q957.8820195688163 451.87156315673445 954.6846732713992 452.0197845082704L954.6846732713992 452.0197845082704ZM1088.401506835567 453.544346981211L1088.401506835567 453.544346981211Q1082.3032569438046 453.544346981211 1078.8729913796883 450.4316985989572Q1075.442725815572 447.29787573791253 1074.8286659306373 441.19962584615L1074.8286659306373 441.19962584615L1074.214606045703 441.05140449461413Q1070.5514212148873 444.7145893254298 1067.269377002307 447.38257365307595Q1064.008507268517 450.0505579807221 1061.4887442924069 451.49042253849933Q1058.9689813162968 452.9514615750674 1057.444418843356 452.9514615750674L1057.444418843356 452.9514615750674Q1051.8120074849921 452.9514615750674 1047.3865414177062 450.49522203532973Q1042.96107535042 448.0601569743829 1040.4413123743097 443.80408673742363Q1037.9215493981997 439.52684202167353 1037.9215493981997 434.0426520148454L1037.9215493981997 434.0426520148454Q1037.9215493981997 429.6171859475594 1040.144869671238 426.27161829860637Q1042.3470154654856 422.90487617086245 1046.0102002963013 421.84615223132033L1046.0102002963013 421.84615223132033L1074.9768872821733 413.9057226847545L1075.1251086337093 407.21458738684845Q1075.1251086337093 399.5917750221452 1071.6313196332203 395.3145303063951Q1068.1163561539406 391.037285590645 1061.7216635591062 391.037285590645L1061.7216635591062 391.037285590645Q1057.444418843356 391.037285590645 1052.7225100729984 393.02768659698415Q1048.0006013026405 395.01808760332335 1043.4269138838185 398.6600979553482L1043.4269138838185 398.6600979553482L1042.6646326473483 398.2154339007405L1040.822452992545 391.65134547557943Q1044.7820805264323 389.3645017661685 1049.673385127117 386.8447387900583Q1054.5435152490109 384.3461502927389 1058.9689813162968 382.65219198947153Q1063.3944473835827 380.979408164995 1065.6812910929937 380.979408164995L1065.6812910929937 380.979408164995Q1072.3936008696905 380.979408164995 1077.1155096400485 383.3509497895693Q1081.8374184104061 385.7013169353528 1084.3571813865165 390.06325956626625Q1086.8769443626265 394.40402771838893 1086.8769443626265 400.65049896168733L1086.8769443626265 400.65049896168733Q1086.8769443626265 402.64089996802653 1086.4958037443917 407.0451915565217Q1086.1146631261563 411.47065762380765 1085.500603241222 416.8913241942633Q1084.8865433562873 422.29081628592803 1084.5054027380525 427.33034223814843Q1084.124262119817 432.3698681903689 1084.124262119817 435.7154358393219L1084.124262119817 435.7154358393219Q1084.124262119817 439.061003488275 1085.7970459442936 440.90318314307825Q1087.46982976877 442.7241883190907 1090.3707333631155 442.7241883190907L1090.3707333631155 442.7241883190907Q1092.9751942543892 442.7241883190907 1095.558480666872 441.4325451128493Q1098.1417670793548 440.14090190660795 1099.5181082007593 438.9127821367391L1099.5181082007593 438.9127821367391L1101.6567305586345 441.34784719768595Q1100.4286107887656 443.3382482040251 1098.3746863460537 445.8580111801353Q1096.3207619033424 448.3777741562455 1093.8009989272318 450.49522203532973Q1091.2812359511217 452.6338443932048 1088.401506835567 453.544346981211ZM1060.027705255839 442.5759669675548L1060.027705255839 442.5759669675548Q1062.928608850184 442.5759669675548 1066.824712947699 440.5220425248431Q1070.6996425664233 438.4681180821314 1073.9181633426315 435.2495973059234L1073.9181633426315 435.2495973059234L1074.6804445791017 419.70752987344525L1053.9294553640761 425.9540011167437Q1049.525163775581 427.33034223814843 1049.525163775581 432.3698681903689L1049.525163775581 432.3698681903689Q1049.525163775581 436.62593842732815 1052.489590806299 439.6115399368369Q1055.454017837017 442.5759669675548 1060.027705255839 442.5759669675548ZM1151.9672921656754 453.544346981211L1152.58135205061 447.29787573791253Q1157.1550394694318 446.0909304468346 1159.1242659969798 443.71938882226027Q1161.114667003319 441.34784719768595 1161.114667003319 437.38821966379845L1161.114667003319 437.38821966379845L1161.7287268882537 407.21458738684845Q1161.7287268882537 399.5917750221452 1158.446682675673 395.462751657931Q1155.1646384630926 391.3549027725076 1149.06638857133 391.3549027725076L1149.06638857133 391.3549027725076Q1145.4032037405143 391.3549027725076 1141.5917975581629 392.8794652454483Q1137.7803913758112 394.40402771838893 1134.815964345093 396.22503289440135Q1131.8515373143755 398.0672125492046 1130.3269748414345 399.2741578402826L1130.3269748414345 399.2741578402826Q1130.1575790111078 403.23378537417005 1129.9458342231997 408.6544519446257Q1129.7129149565003 414.0751185150813 1129.479995689801 419.70752987344525Q1129.2470764231018 425.3399412318093 1129.0988550715656 429.9136286506312Q1128.95063372003 434.4873160694531 1128.95063372003 436.77415977886403L1128.95063372003 436.77415977886403Q1128.95063372003 441.5172430280127 1130.2422769262712 443.42294611918845Q1131.5339201325128 445.32864921036423 1134.4348237268582 445.32864921036423L1134.4348237268582 445.32864921036423Q1135.8111648482627 445.32864921036423 1137.7803913758112 445.1592533800375Q1139.7707923821504 445.01103202850163 1139.7707923821504 445.01103202850163L1139.7707923821504 445.01103202850163L1140.067235085222 445.62509191343605L1138.7120684426081 452.1891803385971Q1138.7120684426081 452.1891803385971 1136.4252247331972 452.0197845082704Q1134.1383810237862 451.87156315673445 1130.9198602475783 451.80803972036193Q1127.722513950161 451.7233418051986 1124.8216103558157 451.7233418051986L1124.8216103558157 451.7233418051986Q1121.6242640583987 451.7233418051986 1118.1304750579097 451.95626107189787Q1114.61551157863 452.1891803385971 1112.1804465176829 452.40092512650557Q1109.7453814567361 452.6338443932048 1109.7453814567361 452.6338443932048L1109.7453814567361 452.6338443932048L1110.5076626932064 446.38737314990635Q1114.9119542817016 445.62509191343605 1116.7541339365048 443.63469090709685Q1118.5751391125173 441.66546437954855 1118.5751391125173 437.38821966379845L1118.5751391125173 437.38821966379845L1118.5751391125173 400.1846604282888Q1118.5751391125173 395.01808760332335 1116.9023552880408 392.9429886818208Q1115.2295714635643 390.88906423910913 1111.10054809935 390.88906423910913L1111.10054809935 390.88906423910913L1109.4277642748734 390.88906423910913L1108.983100220266 390.2750043541747L1109.4277642748734 385.2566528807451Q1114.7637329301656 384.3461502927389 1119.6550375308502 383.3509497895693Q1124.525167652744 382.3557492863997 1127.6589905137885 381.5934680499294Q1130.7716388960425 380.8311868134591 1130.7716388960425 380.8311868134591L1130.7716388960425 380.8311868134591L1131.6821414840488 382.05930658332795Q1131.6821414840488 382.05930658332795 1131.0045581627417 385.1084315292092Q1130.3269748414345 388.1575564750905 1130.009357659572 392.117184008978L1130.009357659572 392.117184008978L1130.3269748414345 392.5618480635856Q1131.6821414840488 391.65134547557943 1134.6677429935573 389.74564238440365Q1137.6321700242752 387.8399392932278 1141.0624355883915 385.8707127656795Q1144.492701152508 383.8803117593404 1147.6900474499253 382.44044720156313Q1150.9085682261332 380.979408164995 1152.7295734021457 380.979408164995L1152.7295734021457 380.979408164995Q1162.342786773188 380.979408164995 1167.9751981315521 386.3153768202872Q1173.607609489916 391.65134547557943 1173.607609489916 400.65049896168733L1173.607609489916 400.65049896168733Q1173.607609489916 402.64089996802653 1173.3111667868443 407.21458738684845Q1173.0147240837723 411.7882748056703 1172.548885550374 417.4206861640343Q1172.0830470169753 423.05309752239833 1171.7866043139036 428.2408448261546Q1171.4901616108318 433.428592129911 1171.4901616108318 436.77415977886403L1171.4901616108318 436.77415977886403Q1171.4901616108318 441.19962584615 1172.6971069019098 443.25355028886173Q1173.9252266717785 445.32864921036423 1176.826130266124 445.32864921036423L1176.826130266124 445.32864921036423Q1178.181296908738 445.32864921036423 1180.171697915077 445.1592533800375Q1182.1620989214161 445.01103202850163 1182.1620989214161 445.01103202850163L1182.1620989214161 445.01103202850163L1182.4585416244881 445.62509191343605L1181.2304218546192 452.1891803385971Q1181.2304218546192 452.1891803385971 1179.9387786483778 452.10448242343375Q1178.6471354421365 452.0197845082704 1176.5932109994246 451.95626107189787Q1174.539286556713 451.87156315673445 1172.1677449321387 451.80803972036193Q1169.7962033075646 451.7233418051986 1167.6787554284801 451.7233418051986L1167.6787554284801 451.7233418051986Q1165.2225158887427 451.7233418051986 1162.5545315610964 452.0197845082704Q1159.8865472334503 452.337401690133 1157.4514821725033 452.6338443932048Q1155.0164171115566 452.9514615750674 1153.4918546386161 453.24790427813923Q1151.9672921656754 453.544346981211 1151.9672921656754 453.544346981211L1151.9672921656754 453.544346981211ZM1254.8752590891681 453.544346981211L1254.8752590891681 453.544346981211Q1242.9752020087149 453.544346981211 1241.3024181842384 442.7241883190907L1241.3024181842384 442.7241883190907L1240.2436942446961 442.279524264483Q1232.3032646981305 447.6154929197752 1227.5813559277726 450.34700068379385Q1222.8594471574147 453.0996829266033 1221.1866633329382 453.0996829266033L1221.1866633329382 453.0996829266033Q1212.4839525499021 453.0996829266033 1205.8563406883686 449.0553574775525Q1199.2287288268349 445.01103202850163 1195.5020205596468 437.7693602820336Q1191.7541378136677 430.5276885355656 1191.7541378136677 420.9356496433141L1191.7541378136677 420.9356496433141Q1191.7541378136677 409.94609515086705 1196.8571872022608 400.8834182283866Q1201.9814110696445 391.7995668271153 1210.66294737389 386.4000747354506Q1219.344483678135 380.979408164995 1229.7199782856478 380.979408164995L1229.7199782856478 380.979408164995Q1231.8586006435228 380.979408164995 1234.4418870560055 381.1276295165309Q1237.0463479472792 381.29702534685765 1240.2436942446961 381.5934680499294L1240.2436942446961 381.5934680499294L1240.2436942446961 356.2899658948731Q1240.2436942446961 352.01272117912293 1238.8673531232917 350.04349465157463Q1237.4910120018867 348.0530936452355 1234.5901084075413 348.0530936452355L1234.5901084075413 348.0530936452355Q1233.3831631164635 348.0530936452355 1232.091519910222 348.34953634830725Q1230.7787022251898 348.66715353016986 1230.7787022251898 348.66715353016986L1230.7787022251898 348.66715353016986L1231.3927621101243 343.01356769301503Q1235.3523896440117 342.56890363840733 1239.33319165669 341.80662240193703Q1243.2928191905776 341.04434116546673 1246.6383868395305 340.2820599289964Q1250.0051289672747 339.5197786925261 1251.9743554948227 339.05394015912754Q1253.964756501162 338.6092761045199 1253.964756501162 338.6092761045199L1253.964756501162 338.6092761045199L1254.8752590891681 340.5785026320682Q1254.261199204234 341.65840105040115 1253.6471393192992 347.439033760301Q1253.0542539131557 353.2408409489918 1252.503717464594 362.6846584897074Q1251.9743554948227 372.1496505092138 1251.5296914402152 383.96500967450373Q1251.0638529068165 395.78036883979365 1250.830933640117 409.0355925628608Q1250.5980143734182 422.29081628592803 1250.5980143734182 435.7154358393219L1250.5980143734182 435.7154358393219Q1250.5980143734182 439.061003488275 1252.2919726766854 440.90318314307825Q1253.964756501162 442.7241883190907 1256.8656600955073 442.7241883190907L1256.8656600955073 442.7241883190907Q1259.300725156454 442.7241883190907 1261.354649599166 441.72898781592113Q1263.4085740418777 440.75496179154237 1264.7002172481189 439.8232847247453Q1266.0130349331512 438.9127821367391 1266.0130349331512 438.9127821367391L1266.0130349331512 438.9127821367391L1268.1304828122352 441.34784719768595Q1268.1304828122352 441.34784719768595 1267.0717588726934 442.87240967062655Q1266.0130349331512 444.3969721435672 1264.170855278348 446.62029241660565Q1262.3498501023355 448.8224382108532 1259.978308477761 450.8128392171924Q1257.6279413319776 452.7820657447407 1254.8752590891681 453.544346981211ZM1223.6217283938852 443.1900268524892L1223.6217283938852 443.1900268524892Q1226.3744106366946 443.1900268524892 1229.254139752249 441.96190708262037Q1232.1550433465945 440.75496179154237 1234.6748063227046 439.14570140343835Q1237.1945692988152 437.53644101533433 1238.7191317717557 436.32949572425633Q1240.2436942446961 435.1013759543875 1240.2436942446961 435.1013759543875L1240.2436942446961 435.1013759543875L1240.2436942446961 393.324129300056Q1240.2436942446961 393.324129300056 1236.2840667108087 391.5878220392069Q1232.3032646981305 389.830340299567 1225.4427335698974 389.830340299567L1225.4427335698974 389.830340299567Q1215.2366347927118 389.830340299567 1209.3713041676483 396.7543948641724Q1203.505973542585 403.6996239075686 1203.505973542585 415.7479023395578L1203.505973542585 415.7479023395578Q1203.505973542585 423.37071470426093 1206.1739578702313 429.6171859475594Q1208.8419421978774 435.86365719085785 1213.4156296166993 439.52684202167353Q1217.9893170355213 443.1900268524892 1223.6217283938852 443.1900268524892ZM1274.8427925889323 453.544346981211L1274.8427925889323 453.544346981211L1275.456852473867 447.29787573791253Q1280.030539892689 446.0909304468346 1282.0209408990281 443.71938882226027Q1283.9901674265761 441.34784719768595 1283.9901674265761 437.38821966379845L1283.9901674265761 437.38821966379845L1283.9901674265761 398.6600979553482Q1283.9901674265761 394.40402771838893 1282.6138263051712 392.41362671204973Q1281.2586596625574 390.44440018450143 1278.357756068212 390.44440018450143L1278.357756068212 390.44440018450143Q1277.1296362983435 390.44440018450143 1275.837993092102 390.74084288757325Q1274.5463498858608 391.037285590645 1274.5463498858608 391.037285590645L1274.5463498858608 391.037285590645L1275.160409770795 385.404874232281Q1278.9718159531467 384.79081434734655 1282.8467455718705 384.02853311087625Q1286.7428496693856 383.26625187440595 1289.940195966803 382.588668553099Q1293.13754226422 381.88991075300123 1295.1279432705592 381.44524669839353Q1297.0971697981076 380.979408164995 1297.0971697981076 380.979408164995L1297.0971697981076 380.979408164995L1297.859451034578 382.82158781979825Q1297.2665656284344 384.3461502927389 1296.5678078283363 389.59742103286777Q1295.8902245070294 394.8486917729966 1295.4243859736307 402.40798070132723Q1294.9797219190232 409.94609515086705 1294.6621047371605 418.8605507218116Q1294.365662034089 427.796180771547 1294.365662034089 436.77415977886403L1294.365662034089 436.77415977886403Q1294.365662034089 441.19962584615 1295.5726073251667 443.25355028886173Q1296.8007270950357 445.32864921036423 1299.701630689381 445.32864921036423L1299.701630689381 445.32864921036423Q1301.0779718107856 445.32864921036423 1303.047198338334 445.1592533800375Q1305.0375993446733 445.01103202850163 1305.0375993446733 445.01103202850163L1305.0375993446733 445.01103202850163L1305.3340420477452 445.62509191343605L1304.127096756667 452.1891803385971Q1304.127096756667 452.1891803385971 1302.8142790716347 452.10448242343375Q1301.5226358653936 452.0197845082704 1299.4687114226817 451.95626107189787Q1297.41478697997 451.87156315673445 1295.0432453553958 451.80803972036193Q1292.6928782096124 451.7233418051986 1290.5542558517373 451.7233418051986L1290.5542558517373 451.7233418051986Q1287.3569095543198 451.7233418051986 1283.6937247235041 452.1891803385971Q1280.030539892689 452.6338443932048 1277.4472534802057 453.0996829266033Q1274.8427925889323 453.544346981211 1274.8427925889323 453.544346981211ZM1288.2674121423265 363.00227567157003L1288.2674121423265 363.00227567157003Q1284.4560059599748 363.00227567157003 1282.6138263051712 360.5460361318323Q1280.7928211291592 358.11097107088545 1280.7928211291592 355.21006747654013L1280.7928211291592 355.21006747654013Q1280.7928211291592 351.5680571245153 1283.3761075416419 348.90007279686915Q1285.9805684329153 346.232088469223 1289.791974615267 346.232088469223L1289.791974615267 346.232088469223Q1293.4551594460827 346.232088469223 1295.3608625372585 348.5824556150065Q1297.2665656284344 350.9539972395808 1297.2665656284344 354.00312218546213L1297.2665656284344 354.00312218546213Q1297.2665656284344 357.6663070162778 1294.7468026523238 360.3342913439239Q1292.2270396762137 363.00227567157003 1288.2674121423265 363.00227567157003ZM1337.2016326279627 453.544346981211L1337.2016326279627 453.544346981211Q1331.7174426211345 453.544346981211 1327.5884192569201 452.71854230836817Q1323.480570371497 451.87156315673445 1321.278424577249 451.10928192026415Q1319.055104304211 450.34700068379385 1319.055104304211 450.34700068379385L1319.055104304211 450.34700068379385L1318.610440249603 449.28827674425173Q1318.906882952675 447.6154929197752 1319.28802357091 443.71938882226027Q1319.6691641891452 439.8232847247453 1320.0503048073801 435.56721448778603Q1320.4314454256155 431.28996977203593 1320.4314454256155 428.8549047110891L1320.4314454256155 428.8549047110891L1325.7674140809077 428.0926234746188Q1325.7674140809077 438.1505009002688 1329.1129817298606 442.279524264483Q1332.4797238576048 446.38737314990635 1340.5472002769156 446.38737314990635L1340.5472002769156 446.38737314990635Q1346.349007465606 446.38737314990635 1350.3086349994937 443.80408673742363Q1354.2682625333814 441.19962584615 1354.2682625333814 437.38821966379845L1354.2682625333814 437.38821966379845Q1354.2682625333814 434.80493325131573 1352.7437000604405 432.66631089344065Q1351.2191375875 430.5276885355656 1347.4077314051483 427.94440212308285Q1343.5963252227966 425.3399412318093 1336.587572743028 421.69793087978445L1336.587572743028 421.69793087978445Q1327.9060364387828 417.2724648124984 1323.9464089048952 412.6987773936765Q1319.9656068922168 408.1250899748546 1319.9656068922168 402.64089996802653L1319.9656068922168 402.64089996802653Q1319.9656068922168 396.37325424593723 1323.6287917230325 391.50312412404355Q1327.2919765538481 386.63299400214987 1333.6866691486825 383.795613844177Q1340.1025362223077 380.979408164995 1348.0217912900825 380.979408164995L1348.0217912900825 380.979408164995Q1354.2682625333814 380.979408164995 1358.7784265158307 382.20752793486383Q1363.2674160194892 383.41447322594183 1363.2674160194892 383.41447322594183L1363.2674160194892 383.41447322594183L1363.5850332013515 384.17675446241213Q1363.5850332013515 384.17675446241213 1363.03449675279 386.78121535368575Q1362.505134783019 389.3645017661685 1361.8275514617121 393.5570485667552Q1361.128793661614 397.74959536734195 1360.6841296070065 402.7891213195624L1360.6841296070065 402.7891213195624L1355.0305437698516 403.23378537417005Q1355.0305437698516 403.23378537417005 1355.1999396001784 401.5610015496936Q1355.3481609517144 399.88821772521703 1355.3481609517144 398.8294937856749L1355.3481609517144 398.8294937856749Q1355.3481609517144 393.324129300056 1352.3625594422056 390.8255408027366Q1349.3981324114875 388.30577782662635 1342.8340439863264 388.30577782662635L1342.8340439863264 388.30577782662635Q1337.667471161361 388.30577782662635 1334.067809766918 390.74084288757325Q1330.4893228512656 393.1759079485201 1330.4893228512656 396.6908714277999L1330.4893228512656 396.6908714277999Q1330.4893228512656 400.35405625861557 1333.6231457123104 403.5514025560327Q1336.735794094564 406.7487488534499 1343.7657210531233 410.41193368426553L1343.7657210531233 410.41193368426553Q1351.9814188239702 414.66800392122485 1356.6398041579555 418.0982694853413Q1361.2981894919408 421.5285350494577 1363.2038925831166 424.7470558256657Q1365.1095956742924 427.94440212308285 1365.1095956742924 431.7558083054344L1365.1095956742924 431.7558083054344Q1365.1095956742924 437.53644101533433 1361.2134915767774 442.5759669675548Q1357.3173874792624 447.6154929197752 1351.0073927995913 450.5799199504931Q1344.6762236411296 453.544346981211 1337.2016326279627 453.544346981211ZM1379.1271006338297 453.544346981211L1379.1271006338297 453.544346981211L1379.7411605187644 447.29787573791253Q1384.3148479375864 446.0909304468346 1386.2840744651344 443.71938882226027Q1388.2744754714736 441.34784719768595 1388.2744754714736 437.38821966379845L1388.2744754714736 437.38821966379845L1388.2744754714736 398.6600979553482Q1388.2744754714736 394.40402771838893 1386.898134350069 392.41362671204973Q1385.5217932286641 390.44440018450143 1382.6420641131099 390.44440018450143L1382.6420641131099 390.44440018450143Q1381.413944343241 390.44440018450143 1380.1223011369993 390.74084288757325Q1378.8306579307582 391.037285590645 1378.8306579307582 391.037285590645L1378.8306579307582 391.037285590645L1379.4235433369017 385.404874232281Q1383.2349495192534 384.79081434734655 1387.1310536167684 384.02853311087625Q1391.027157714283 383.26625187440595 1394.2245040117004 382.588668553099Q1397.4218503091174 381.88991075300123 1399.4122513154566 381.44524669839353Q1401.381477843005 380.979408164995 1401.381477843005 380.979408164995L1401.381477843005 380.979408164995L1402.1437590794753 382.82158781979825Q1401.529699194541 384.3461502927389 1400.8521158732342 389.59742103286777Q1400.1745325519273 394.8486917729966 1399.7086940185286 402.40798070132723Q1399.24285548513 409.94609515086705 1398.946412782058 418.8605507218116Q1398.6499700789864 427.796180771547 1398.6499700789864 436.77415977886403L1398.6499700789864 436.77415977886403Q1398.6499700789864 441.19962584615 1399.8569153700646 443.25355028886173Q1401.085035139933 445.32864921036423 1403.9859387342785 445.32864921036423L1403.9859387342785 445.32864921036423Q1405.3411053768923 445.32864921036423 1407.3315063832315 445.1592533800375Q1409.3219073895707 445.01103202850163 1409.3219073895707 445.01103202850163L1409.3219073895707 445.01103202850163L1409.6183500926427 445.62509191343605L1408.3902303227737 452.1891803385971Q1408.3902303227737 452.1891803385971 1407.0985871165326 452.10448242343375Q1405.806943910291 452.0197845082704 1403.7530194675792 451.95626107189787Q1401.6990950248678 451.87156315673445 1399.3275534002933 451.80803972036193Q1396.9560117757192 451.7233418051986 1394.8385638966347 451.7233418051986L1394.8385638966347 451.7233418051986Q1391.620043120427 451.7233418051986 1387.978032768402 452.1891803385971Q1384.3148479375864 452.6338443932048 1381.7103870463125 453.0996829266033Q1379.1271006338297 453.544346981211 1379.1271006338297 453.544346981211ZM1392.551720187224 363.00227567157003L1392.551720187224 363.00227567157003Q1388.7403140048723 363.00227567157003 1386.898134350069 360.5460361318323Q1385.0771291740566 358.11097107088545 1385.0771291740566 355.21006747654013L1385.0771291740566 355.21006747654013Q1385.0771291740566 351.5680571245153 1387.6604155865393 348.90007279686915Q1390.2648764778128 346.232088469223 1394.0762826601645 346.232088469223L1394.0762826601645 346.232088469223Q1397.7182930121894 346.232088469223 1399.6239961033648 348.5824556150065Q1401.529699194541 350.9539972395808 1401.529699194541 354.00312218546213L1401.529699194541 354.00312218546213Q1401.529699194541 357.6663070162778 1399.0311106972217 360.3342913439239Q1396.5113477211112 363.00227567157003 1392.551720187224 363.00227567157003ZM1464.6508204700413 453.544346981211L1465.2648803549755 447.29787573791253Q1469.8385677737979 446.0909304468346 1471.828968780137 443.71938882226027Q1473.798195307685 441.34784719768595 1473.798195307685 437.38821966379845L1473.798195307685 437.38821966379845L1474.4122551926198 407.21458738684845Q1474.4122551926198 399.5917750221452 1471.130210980039 395.462751657931Q1467.8481667674587 391.3549027725076 1461.7499168756958 391.3549027725076L1461.7499168756958 391.3549027725076Q1458.1079065236709 391.3549027725076 1454.2965003413196 392.8794652454483Q1450.485094158968 394.40402771838893 1447.4994926494592 396.22503289440135Q1444.535065618741 398.0672125492046 1443.0105031458006 399.2741578402826L1443.0105031458006 399.2741578402826Q1442.8622817942646 403.23378537417005 1442.6293625275653 408.6544519446257Q1442.3964432608664 414.0751185150813 1442.163523994167 419.70752987344525Q1441.9306047274677 425.3399412318093 1441.7823833759317 429.9136286506312Q1441.6341620243961 434.4873160694531 1441.6341620243961 436.77415977886403L1441.6341620243961 436.77415977886403Q1441.6341620243961 441.5172430280127 1442.9258052306373 443.42294611918845Q1444.2174484368784 445.32864921036423 1447.1183520312238 445.32864921036423L1447.1183520312238 445.32864921036423Q1448.4946931526288 445.32864921036423 1450.485094158968 445.1592533800375Q1452.4543206865164 445.01103202850163 1452.4543206865164 445.01103202850163L1452.4543206865164 445.01103202850163L1452.7719378683787 445.62509191343605L1451.3955967469742 452.1891803385971Q1451.3955967469742 452.1891803385971 1449.108753037563 452.0197845082704Q1446.8219093281523 451.87156315673445 1443.6245630307353 451.80803972036193Q1440.4060422545272 451.7233418051986 1437.5263131389725 451.7233418051986L1437.5263131389725 451.7233418051986Q1434.3077923627643 451.7233418051986 1430.8140033622753 451.95626107189787Q1427.2990398829957 452.1891803385971 1424.863974822049 452.40092512650557Q1422.4289097611022 452.6338443932048 1422.4289097611022 452.6338443932048L1422.4289097611022 452.6338443932048L1423.1911909975724 446.38737314990635Q1427.6166570648584 445.62509191343605 1429.4376622408708 443.63469090709685Q1431.2586674168833 441.66546437954855 1431.2586674168833 437.38821966379845L1431.2586674168833 437.38821966379845L1431.2586674168833 400.1846604282888Q1431.2586674168833 395.01808760332335 1429.5858835924068 392.9429886818208Q1427.9130997679304 390.88906423910913 1423.8052508825067 390.88906423910913L1423.8052508825067 390.88906423910913L1422.1112925792395 390.88906423910913L1421.666628524632 390.2750043541747L1422.1112925792395 385.2566528807451Q1427.4472612345317 384.3461502927389 1432.3385658352163 383.3509497895693Q1437.2086959571097 382.3557492863997 1440.3425188181545 381.5934680499294Q1443.4551672004081 380.8311868134591 1443.4551672004081 380.8311868134591L1443.4551672004081 380.8311868134591L1444.3868442672056 382.05930658332795Q1444.3868442672056 382.05930658332795 1443.6880864671075 385.1084315292092Q1443.0105031458006 388.1575564750905 1442.692885963938 392.117184008978L1442.692885963938 392.117184008978L1443.0105031458006 392.5618480635856Q1444.3868442672056 391.65134547557943 1447.3512712979232 389.74564238440365Q1450.3156983286412 387.8399392932278 1453.7459638927576 385.8707127656795Q1457.176229456874 383.8803117593404 1460.394750233082 382.44044720156313Q1463.5920965304995 380.979408164995 1465.4131017065115 380.979408164995L1465.4131017065115 380.979408164995Q1475.026315077554 380.979408164995 1480.6587264359182 386.3153768202872Q1486.3123122730726 391.65134547557943 1486.3123122730726 400.65049896168733L1486.3123122730726 400.65049896168733Q1486.3123122730726 402.64089996802653 1485.99469509121 407.21458738684845Q1485.6982523881384 411.7882748056703 1485.2324138547397 417.4206861640343Q1484.7877498001321 423.05309752239833 1484.4701326182694 428.2408448261546Q1484.1736899151979 433.428592129911 1484.1736899151979 436.77415977886403L1484.1736899151979 436.77415977886403Q1484.1736899151979 441.19962584615 1485.3806352062757 443.25355028886173Q1486.6087549761446 445.32864921036423 1489.50965857049 445.32864921036423L1489.50965857049 445.32864921036423Q1490.8859996918945 445.32864921036423 1492.855226219443 445.1592533800375Q1494.8456272257822 445.01103202850163 1494.8456272257822 445.01103202850163L1494.8456272257822 445.01103202850163L1495.1420699288537 445.62509191343605L1493.935124637776 452.1891803385971Q1493.935124637776 452.1891803385971 1492.6223069527437 452.10448242343375Q1491.3306637465025 452.0197845082704 1489.2767393037907 451.95626107189787Q1487.2228148610789 451.87156315673445 1484.8512732365048 451.80803972036193Q1482.5009060907214 451.7233418051986 1480.3622837328462 451.7233418051986L1480.3622837328462 451.7233418051986Q1477.9272186718995 451.7233418051986 1475.2592343442534 452.0197845082704Q1472.5912500166073 452.337401690133 1470.1350104768694 452.6338443932048Q1467.6999454159227 452.9514615750674 1466.1753829429817 453.24790427813923Q1464.6508204700413 453.544346981211 1464.6508204700413 453.544346981211L1464.6508204700413 453.544346981211ZM1531.435126576357 488.6092838588456L1531.435126576357 488.6092838588456Q1524.2569782662622 488.6092838588456 1519.0904054412963 486.17421879789873Q1513.9026581375401 483.7391537369519 1511.086452458358 479.16546631813003Q1508.2490723003853 474.5917788993081 1508.2490723003853 468.34530765600965L1508.2490723003853 468.34530765600965Q1510.3876946582604 465.7408467647361 1514.432020107311 462.0141384975479Q1518.476345556362 458.28743023035963 1523.3464756782555 454.62424539954395L1523.3464756782555 454.62424539954395L1523.3464756782555 453.71374281153777Q1515.4272206104806 452.337401690133 1511.234673809894 448.52599550778143Q1507.0421270093075 444.7145893254298 1506.7245098274448 438.7645607852032L1506.7245098274448 438.7645607852032Q1509.4771920702542 436.18127437272045 1512.6745383676712 433.66151139661025Q1515.8718846650886 431.14174842050005 1519.5350694959043 429.003126062625L1519.5350694959043 429.003126062625L1519.5350694959043 426.8645037047499L1527.47549904247 429.4689645960235Q1522.7324157933213 431.90402965697035 1520.6784913506094 433.80973274814613Q1518.624566907898 435.7154358393219 1518.624566907898 437.70583684566105L1518.624566907898 437.70583684566105Q1518.624566907898 440.75496179154237 1522.2877517387137 442.1948263493196Q1525.9509365695294 443.63469090709685 1531.668045843057 444.3334487071947Q1537.385155116584 445.01103202850163 1543.8645456265817 445.77331326497193Q1550.3439361365795 446.5355945014423 1556.0610454101065 448.14485488954625Q1561.7781546836345 449.73294079885943 1565.420165035659 452.86676365990405Q1569.0833498664747 456.00058652094873 1569.0833498664747 461.6329978793127L1569.0833498664747 461.6329978793127Q1569.0833498664747 466.67252383153317 1565.970701484221 471.54265395342685Q1562.8368786231763 476.41278407532053 1557.4162120527208 480.22419025767215Q1552.016719961056 484.03559644002365 1545.3044101843589 486.3224401494346Q1538.5921004076622 488.6092838588456 1531.435126576357 488.6092838588456ZM1536.6228738801137 481.15586732446917L1536.6228738801137 481.15586732446917Q1542.5517279415494 481.15586732446917 1547.739475245306 479.0807684029666Q1552.9272225490622 477.02684396025495 1556.1245688464792 473.533054959766Q1559.3219151438966 470.0180914804862 1559.3219151438966 466.0584639465987L1559.3219151438966 466.0584639465987Q1559.3219151438966 463.00933900071743 1557.0350714344854 461.1671593459142Q1554.7482277250747 459.34615416990175 1548.4382330454036 457.9062896121245Q1542.107063886942 456.4452505755564 1529.9105641034166 454.92068810261577L1529.9105641034166 454.92068810261577Q1525.3368766845947 458.1180344000329 1522.901811623648 462.0141384975479Q1520.44557208391 465.9102425950628 1520.44557208391 469.7216487774144L1520.44557208391 469.7216487774144Q1520.44557208391 474.88822160237993 1524.8710381511964 478.0220444634245Q1529.2965042184824 481.15586732446917 1536.6228738801137 481.15586732446917ZM1537.2157592862573 425.1917198802734L1537.2157592862573 425.1917198802734Q1544.245686244817 425.1917198802734 1548.268837215077 420.7662538129874Q1552.313162664128 416.36196222449223 1552.313162664128 408.56975402946233L1552.313162664128 408.56975402946233Q1552.313162664128 399.73999637368115 1547.443032542234 394.255806366853Q1542.5517279415494 388.75044188123405 1534.7806942253105 388.75044188123405L1534.7806942253105 388.75044188123405Q1527.7719417455419 388.75044188123405 1523.7276162964909 393.324129300056Q1519.6832908474398 397.8978167188779 1519.6832908474398 405.6900249139078L1519.6832908474398 405.6900249139078Q1519.6832908474398 414.37156121815303 1524.5745954481245 419.7922277886086Q1529.4447255700184 425.1917198802734 1537.2157592862573 425.1917198802734ZM1533.7219702857683 431.90402965697035L1533.7219702857683 431.90402965697035Q1526.247379272601 431.90402965697035 1520.5302699990739 428.93960262625245Q1514.8131607255464 425.9540011167437 1511.5311165129656 420.70273037661485Q1508.2490723003853 415.43028515769515 1508.2490723003853 408.73914985978905L1508.2490723003853 408.73914985978905Q1508.2490723003853 401.1163374950859 1512.1451763979003 394.8486917729966Q1516.0412804954153 388.6022205296982 1522.520671005413 384.79081434734655Q1529.0000615154104 380.979408164995 1536.6228738801137 380.979408164995L1536.6228738801137 380.979408164995Q1540.878944117073 380.979408164995 1544.775048214588 381.82638731662865Q1548.6499778333118 382.65219198947153 1551.5508814276573 382.65219198947153L1551.5508814276573 382.65219198947153Q1554.6000063735387 382.3557492863997 1560.1688942955302 381.1276295165309Q1565.7377822175217 379.9206842254529 1572.5983133457544 378.0785045706496L1572.5983133457544 378.0785045706496L1573.0429774003624 378.69256445558403L1571.3701935758854 387.22587940829345Q1568.024625926933 387.69171794169193 1564.3614410961168 387.98816064476375Q1560.698256265301 388.30577782662635 1558.2631912043544 388.6022205296982L1558.2631912043544 388.6022205296982L1557.6491313194197 389.3645017661685Q1563.7473812111825 396.0768115428654 1563.7473812111825 404.92774367743743L1563.7473812111825 404.92774367743743Q1563.7473812111825 412.3811602118139 1559.7030557621315 418.4794101035764Q1555.6799047918716 424.57765999533893 1548.8828971000112 428.2408448261546Q1542.107063886942 431.90402965697035 1533.7219702857683 431.90402965697035Z " fill="#6415ff" transform="matrix(0.5562467396100732,0,0,0.5562467396100732,0,69.9311745029308)"/></g></svg>